<svg width="24" height="24" viewBox="0 0 24 24" fill="none" xmlns="http://www.w3.org/2000/svg">
<g id="Group">
<path id="Vector" d="M9.579 9.57315C9.579 8.62515 8.845 8.40015 8.03 8.40015H5.909V10.8001H8.196C9.005 10.8001 9.579 10.4461 9.579 9.57315Z" fill="#525F68"/>
<path id="Vector_2" d="M16.666 10.8162C15.686 10.8162 15.032 11.4272 14.968 12.4072H18.3C18.209 11.4162 17.695 10.8162 16.666 10.8162Z" fill="#525F68"/>
<path id="Vector_3" d="M8.36799 12.509H5.90399V15.343H8.31999C9.24199 15.343 9.99199 15.016 9.99199 13.982C9.99099 12.927 9.36399 12.514 8.36799 12.509Z" fill="#525F68"/>
<path id="Vector_4" d="M19.75 0.300049H4.25C1.9 0.300049 0 2.20005 0 4.55005V19.4501C0 21.8001 1.9 23.7001 4.25 23.7001H19.75C22.1 23.7001 24 21.8001 24 19.4501V4.55005C24 2.20005 22.1 0.300049 19.75 0.300049ZM14.555 7.18405H18.723V8.19605H14.555V7.18405ZM8.63 17.1H3.643V6.81405H8.491C10.254 6.81405 11.78 7.31205 11.78 9.35805C11.78 10.392 11.298 10.901 10.376 11.34C11.64 11.699 12.251 12.814 12.251 14.105C12.252 16.195 10.5 17.0891 8.63 17.1ZM20.341 13.698H14.973C14.973 14.887 15.6 15.589 16.8 15.589C17.421 15.589 18.22 15.257 18.418 14.619H20.223C19.666 16.328 18.514 17.126 16.736 17.126C14.39 17.126 12.927 15.535 12.927 13.215C12.927 10.976 14.465 9.27305 16.736 9.27305C19.066 9.27305 20.357 11.11 20.357 13.312C20.357 13.441 20.346 13.575 20.341 13.698Z" fill="#525F68"/>
</g>
</svg>
