<svg width="25" height="24" viewBox="0 0 25 24" fill="none" xmlns="http://www.w3.org/2000/svg">
<g id="Group">
<path id="Vector" fill-rule="evenodd" clip-rule="evenodd" d="M12.5 0.000244141C5.875 0.000244141 0.5 5.37524 0.5 12.0002C0.5 18.6252 5.875 24.0002 12.5 24.0002C19.112 24.0002 24.5 18.6252 24.5 12.0002C24.5 5.37524 19.112 0.000244141 12.5 0.000244141ZM20.426 5.53124C21.858 7.27524 22.717 9.50124 22.743 11.9092C22.405 11.8442 19.021 11.1542 15.61 11.5832C15.532 11.4142 15.467 11.2322 15.389 11.0502C15.181 10.5552 14.946 10.0482 14.712 9.56624C18.487 8.03024 20.205 5.81824 20.426 5.53124ZM13.918 8.04324C12.239 4.95924 10.378 2.43324 10.092 2.04324C10.86 1.86124 11.667 1.77024 12.5 1.77024C15.103 1.77024 17.485 2.74624 19.294 4.34724C19.112 4.60724 17.563 6.67724 13.918 8.04324ZM8.14 2.73324C8.413 3.09724 10.235 5.63524 11.94 8.65524C7.15 9.93024 2.92 9.90524 2.465 9.90524C3.129 6.72924 5.277 4.08724 8.14 2.73324ZM2.244 11.7002C2.686 11.7132 7.658 11.7782 12.773 10.2432C13.073 10.8152 13.346 11.4012 13.606 11.9872C13.476 12.0262 13.333 12.0652 13.202 12.1042C7.918 13.8092 5.107 18.4692 4.872 18.8592C3.245 17.0502 2.243 14.6422 2.243 12.0132L2.244 11.7002ZM14.257 13.6922C14.283 13.6792 14.296 13.6792 14.322 13.6662C15.767 17.4012 16.353 20.5382 16.509 21.4362C15.272 21.9702 13.919 22.2562 12.5 22.2562C10.131 22.2562 7.945 21.4492 6.214 20.0962C6.396 19.7182 8.478 15.7092 14.257 13.6922ZM18.214 20.4992C18.11 19.8742 17.563 16.8812 16.223 13.1972C19.438 12.6902 22.249 13.5232 22.6 13.6402C22.157 16.4902 20.518 18.9502 18.214 20.4992Z" fill="#03ADEA"/>
</g>
</svg>
