<svg width="25" height="24" viewBox="0 0 25 24" fill="none" xmlns="http://www.w3.org/2000/svg">
<g id="Group">
<path id="Vector" fill-rule="evenodd" clip-rule="evenodd" d="M12.5 0.296143C5.873 0.296143 0.5 5.66814 0.5 12.2961C0.5 17.5981 3.938 22.0961 8.706 23.6831C9.306 23.7941 9.526 23.4231 9.526 23.1061C9.526 22.8201 9.515 21.8751 9.51 20.8721C6.172 21.5981 5.467 19.4561 5.467 19.4561C4.921 18.0691 4.135 17.7001 4.135 17.7001C3.046 16.9551 4.217 16.9711 4.217 16.9711C5.422 17.0561 6.056 18.2081 6.056 18.2081C7.126 20.0421 8.863 19.5121 9.548 19.2051C9.656 18.4291 9.967 17.9001 10.31 17.6001C7.645 17.2971 4.843 16.2681 4.843 11.6701C4.843 10.3601 5.312 9.28914 6.08 8.44914C5.955 8.14614 5.544 6.92614 6.196 5.27314C6.196 5.27314 7.204 4.95114 9.497 6.50314C10.454 6.23714 11.48 6.10414 12.5 6.09914C13.52 6.10414 14.547 6.23714 15.506 6.50314C17.796 4.95014 18.803 5.27314 18.803 5.27314C19.456 6.92614 19.045 8.14614 18.921 8.44914C19.69 9.28914 20.156 10.3601 20.156 11.6701C20.156 16.2791 17.349 17.2941 14.677 17.5911C15.107 17.9631 15.491 18.6941 15.491 19.8131C15.491 21.4191 15.477 22.7111 15.477 23.1061C15.477 23.4251 15.693 23.8001 16.301 23.6821C21.067 22.0931 24.501 17.5971 24.501 12.2971C24.5 5.66914 19.127 0.296143 12.5 0.296143Z" fill="#525F68"/>
<path id="Vector_2" d="M5.04503 17.5261C5.01903 17.5861 4.92503 17.6041 4.83903 17.5631C4.75203 17.5241 4.70303 17.4421 4.73103 17.3831C4.75703 17.3221 4.85103 17.3051 4.93803 17.3461C5.02503 17.3841 5.07503 17.4661 5.04503 17.5261Z" fill="#525F68"/>
<path id="Vector_3" d="M5.53097 18.0681C5.47397 18.1211 5.36197 18.0961 5.28597 18.0131C5.20697 17.9291 5.19297 17.8171 5.25097 17.7641C5.30997 17.7111 5.41797 17.7361 5.49697 17.8201C5.57597 17.9031 5.59097 18.0141 5.53097 18.0681Z" fill="#525F68"/>
<path id="Vector_4" d="M6.00404 18.7592C5.93004 18.8102 5.81004 18.7622 5.73604 18.6562C5.66204 18.5492 5.66204 18.4212 5.73804 18.3702C5.81204 18.3192 5.93104 18.3652 6.00604 18.4712C6.07904 18.5792 6.07904 18.7072 6.00404 18.7592Z" fill="#525F68"/>
<path id="Vector_5" d="M6.65195 19.4271C6.58595 19.5001 6.44595 19.4801 6.34395 19.3811C6.23895 19.2841 6.20995 19.1471 6.27595 19.0741C6.34295 19.0011 6.48395 19.0221 6.58695 19.1201C6.69095 19.2171 6.72195 19.3551 6.65195 19.4271Z" fill="#151A2D"/>
<path id="Vector_6" d="M7.54695 19.8143C7.51795 19.9083 7.38295 19.9513 7.24695 19.9113C7.11095 19.8703 7.02195 19.7603 7.04995 19.6653C7.07795 19.5703 7.21395 19.5263 7.35095 19.5693C7.48595 19.6093 7.57495 19.7193 7.54695 19.8143Z" fill="#151A2D"/>
<path id="Vector_7" d="M8.52894 19.8863C8.53194 19.9853 8.41694 20.0673 8.27394 20.0693C8.13094 20.0723 8.01394 19.9923 8.01294 19.8953C8.01294 19.7953 8.12594 19.7143 8.26894 19.7113C8.41194 19.7083 8.52894 19.7883 8.52894 19.8863Z" fill="#151A2D"/>
<path id="Vector_8" d="M9.44302 19.7311C9.46002 19.8271 9.36102 19.9271 9.21902 19.9531C9.08002 19.9791 8.95102 19.9191 8.93302 19.8231C8.91602 19.7241 9.01702 19.6251 9.15602 19.5991C9.29702 19.5741 9.42502 19.6321 9.44302 19.7311Z" fill="#151A2D"/>
</g>
</svg>
