<svg width="25" height="24" viewBox="0 0 25 24" fill="none" xmlns="http://www.w3.org/2000/svg">
<g id="Group">
<path id="Vector" d="M10.0791 9.57339C10.0791 8.62539 9.34506 8.40039 8.53006 8.40039H6.40906V10.8004H8.69606C9.50506 10.8004 10.0791 10.4464 10.0791 9.57339Z" fill="#525F68"/>
<path id="Vector_2" d="M17.166 10.8164C16.186 10.8164 15.532 11.4274 15.468 12.4074H18.8C18.709 11.4164 18.195 10.8164 17.166 10.8164Z" fill="#525F68"/>
<path id="Vector_3" d="M8.86805 12.5093H6.40405V15.3433H8.82005C9.74205 15.3433 10.4921 15.0163 10.4921 13.9823C10.4911 12.9273 9.86405 12.5143 8.86805 12.5093Z" fill="#525F68"/>
<path id="Vector_4" d="M20.25 0.300293H4.75C2.4 0.300293 0.5 2.20029 0.5 4.55029V19.4503C0.5 21.8003 2.4 23.7003 4.75 23.7003H20.25C22.6 23.7003 24.5 21.8003 24.5 19.4503V4.55029C24.5 2.20029 22.6 0.300293 20.25 0.300293ZM15.055 7.18429H19.223V8.19629H15.055V7.18429ZM9.13 17.1003H4.143V6.81429H8.991C10.754 6.81429 12.28 7.31229 12.28 9.35829C12.28 10.3923 11.798 10.9013 10.876 11.3403C12.14 11.6993 12.751 12.8143 12.751 14.1053C12.752 16.1953 11 17.0893 9.13 17.1003ZM20.841 13.6983H15.473C15.473 14.8873 16.1 15.5893 17.3 15.5893C17.921 15.5893 18.72 15.2573 18.918 14.6193H20.723C20.166 16.3283 19.014 17.1263 17.236 17.1263C14.89 17.1263 13.427 15.5353 13.427 13.2153C13.427 10.9763 14.965 9.27329 17.236 9.27329C19.566 9.27329 20.857 11.1103 20.857 13.3123C20.857 13.4413 20.846 13.5753 20.841 13.6983Z" fill="#525F68"/>
</g>
</svg>
