<svg width="135" height="24" viewBox="0 0 135 24" fill="none" xmlns="http://www.w3.org/2000/svg">
<path id="logo" fill-rule="evenodd" clip-rule="evenodd" d="M50.0142 7.71198C48.7769 6.34665 47.1342 5.66398 45.0862 5.66398C43.8916 5.66398 42.8142 5.89865 41.8542 6.36798C40.8942 6.83731 40.1369 7.46665 39.5822 8.25598V0.0319824H34.1102V23.712H39.5822V14.016C39.5822 12.8213 39.8916 11.8933 40.5102 11.232C41.1289 10.5706 41.9609 10.24 43.0062 10.24C44.0516 10.24 44.8836 10.5706 45.5022 11.232C46.1209 11.8933 46.4302 12.8213 46.4302 14.016V23.712H51.8702V13.28C51.8702 10.912 51.2516 9.05598 50.0142 7.71198ZM96.551 0.0319824V23.712H91.079V0.0319824H96.551ZM117.252 16.096C117.316 15.5413 117.348 15.008 117.348 14.496C117.348 12.704 116.964 11.136 116.196 9.79198C115.45 8.44798 114.404 7.41331 113.06 6.68798C111.716 5.96264 110.18 5.59998 108.452 5.59998C106.682 5.59998 105.114 5.97331 103.748 6.71998C102.383 7.46664 101.316 8.53331 100.548 9.91998C99.8018 11.3066 99.4285 12.928 99.4285 14.784C99.4285 16.64 99.8125 18.2613 100.58 19.648C101.348 21.0346 102.415 22.1013 103.78 22.848C105.146 23.5946 106.703 23.968 108.452 23.968C109.903 23.968 111.215 23.7013 112.388 23.168C113.562 22.6346 114.532 21.8986 115.3 20.96C116.09 20.0213 116.634 18.9653 116.932 17.792H111.108C110.575 18.944 109.626 19.52 108.26 19.52C107.343 19.52 106.564 19.232 105.924 18.656C105.306 18.0586 104.954 17.2053 104.868 16.096H117.252ZM110.788 10.816C111.428 11.3706 111.748 12.1173 111.748 13.056H104.9C105.05 12.0746 105.434 11.3173 106.052 10.784C106.692 10.2506 107.471 9.98398 108.388 9.98398C109.348 9.98398 110.148 10.2613 110.788 10.816ZM123.339 23.168C124.555 23.7013 125.942 23.968 127.499 23.968C128.95 23.968 130.219 23.7333 131.307 23.264C132.417 22.7946 133.259 22.1546 133.835 21.344C134.433 20.512 134.731 19.5733 134.731 18.528C134.71 17.2906 134.379 16.3093 133.739 15.584C133.121 14.8373 132.395 14.304 131.563 13.984C130.731 13.6426 129.654 13.3013 128.331 12.96C127.179 12.704 126.326 12.448 125.771 12.192C125.238 11.936 124.971 11.552 124.971 11.04C124.971 10.6133 125.142 10.2826 125.483 10.048C125.825 9.79198 126.315 9.66398 126.955 9.66398C127.702 9.66398 128.299 9.84531 128.747 10.208C129.217 10.5706 129.494 11.0613 129.579 11.68H134.635C134.443 9.84531 133.697 8.37331 132.395 7.26398C131.115 6.15464 129.355 5.59998 127.115 5.59998C125.601 5.59998 124.289 5.84531 123.179 6.33598C122.091 6.82664 121.259 7.49864 120.683 8.35198C120.129 9.18398 119.851 10.112 119.851 11.136C119.851 12.352 120.161 13.3226 120.779 14.048C121.398 14.752 122.134 15.2746 122.987 15.616C123.841 15.936 124.907 16.2453 126.187 16.544C127.382 16.8426 128.246 17.12 128.779 17.376C129.313 17.6106 129.579 17.984 129.579 18.496C129.579 18.9226 129.387 19.2746 129.003 19.552C128.641 19.808 128.118 19.936 127.435 19.936C126.689 19.936 126.059 19.744 125.547 19.36C125.035 18.976 124.747 18.4746 124.683 17.856H119.275C119.361 19.008 119.755 20.0533 120.459 20.992C121.163 21.9093 122.123 22.6346 123.339 23.168ZM85.2635 6.52806C84.3035 7.08273 83.5035 7.85073 82.8635 8.83206V5.85606H77.3915V23.7121H82.8635V15.4241C82.8635 13.9521 83.2048 12.9281 83.8875 12.3521C84.5701 11.7547 85.5941 11.4561 86.9595 11.4561H88.4635V5.66406C87.2901 5.66406 86.2235 5.95206 85.2635 6.52806ZM54.5847 14.752C54.5847 12.9173 54.926 11.3066 55.6087 9.91998C56.3127 8.53331 57.2621 7.46664 58.4567 6.71998C59.6514 5.97331 60.9847 5.59998 62.4567 5.59998C63.7154 5.59998 64.8141 5.85598 65.7527 6.36798C66.7127 6.87998 67.4487 7.55198 67.9607 8.38398V5.85598H73.4327V23.712H67.9607V21.184C67.4274 22.016 66.6807 22.688 65.7207 23.2C64.7821 23.712 63.6834 23.968 62.4247 23.968C60.9741 23.968 59.6514 23.5946 58.4567 22.848C57.2621 22.08 56.3127 21.0026 55.6087 19.616C54.926 18.208 54.5847 16.5866 54.5847 14.752ZM67.9607 14.784C67.9607 13.4186 67.5767 12.3413 66.8087 11.552C66.062 10.7626 65.1447 10.368 64.0567 10.368C62.9687 10.368 62.0407 10.7626 61.2727 11.552C60.5261 12.32 60.1527 13.3866 60.1527 14.752C60.1527 16.1173 60.5261 17.2053 61.2727 18.016C62.0407 18.8053 62.9687 19.2 64.0567 19.2C65.1447 19.2 66.062 18.8053 66.8087 18.016C67.5767 17.2266 67.9607 16.1493 67.9607 14.784ZM8.80725 12.4481C8.80725 10.2294 9.28725 8.25607 10.2473 6.52807C11.2073 4.77873 12.5406 3.42407 14.2473 2.46407C15.9753 1.48273 17.9273 0.992065 20.1033 0.992065C22.7699 0.992065 25.0526 1.69607 26.9513 3.10406C28.8499 4.51207 30.1193 6.43207 30.7593 8.86407H24.7433C24.2953 7.9254 23.6553 7.21073 22.8233 6.72007C22.0126 6.2294 21.0846 5.98407 20.0393 5.98407C18.3539 5.98407 16.9886 6.57073 15.9433 7.74407C14.8979 8.9174 14.3753 10.4854 14.3753 12.4481C14.3753 14.4107 14.8979 15.9787 15.9433 17.1521C16.9886 18.3254 18.3539 18.9121 20.0393 18.9121C21.0846 18.9121 22.0126 18.6667 22.8233 18.1761C23.6553 17.6854 24.2953 16.9707 24.7433 16.0321H30.7593C30.1193 18.4641 28.8499 20.3841 26.9513 21.7921C25.0526 23.1787 22.7699 23.8721 20.1033 23.8721C17.9273 23.8721 15.9753 23.3921 14.2473 22.4321C12.5406 21.4507 11.2073 20.0961 10.2473 18.3681C9.28725 16.6401 8.80725 14.6667 8.80725 12.4481ZM0.896 23.136C1.51467 23.6907 2.304 23.968 3.264 23.968C4.20267 23.968 4.97067 23.6907 5.568 23.136C6.18667 22.56 6.496 21.856 6.496 21.024C6.496 20.1707 6.18667 19.456 5.568 18.88C4.97067 18.304 4.20267 18.016 3.264 18.016C2.304 18.016 1.51467 18.304 0.896 18.88C0.298667 19.456 0 20.1707 0 21.024C0 21.856 0.298667 22.56 0.896 23.136Z" fill="white"/>
</svg>
